<svg xmlns="http://www.w3.org/2000/svg" viewBox="0 0 64 64" width="64" height="64">
  <circle cx="32" cy="32" r="32" fill="#0a1a0a"/>
  <!-- Face with white foundation (Kyoshi face paint) -->
  <circle cx="32" cy="34" r="14" fill="white" opacity="0.92"/>
  <!-- Red eye shadow -->
  <ellipse cx="27" cy="31" rx="4" ry="2.5" fill="#dc2626" opacity="0.7"/>
  <ellipse cx="37" cy="31" rx="4" ry="2.5" fill="#dc2626" opacity="0.7"/>
  <!-- Green lip -->
  <path d="M27 38 Q32 42 37 38" fill="#a3e635" opacity="0.8" stroke="none"/>
  <!-- Eyes -->
  <circle cx="27" cy="31" r="1.5" fill="#0a1a0a"/>
  <circle cx="37" cy="31" r="1.5" fill="#0a1a0a"/>
  <!-- Kyoshi Warrior headdress -->
  <path d="M18 20 Q22 14 32 12 Q42 14 46 20 Q40 17 32 16 Q24 17 18 20Z" fill="#a3e635" opacity="0.9"/>
  <!-- Fan outline at side -->
  <path d="M12 30 Q14 22 20 20 Q16 26 15 32Z" fill="#a3e635" opacity="0.5"/>
  <path d="M52 30 Q50 22 44 20 Q48 26 49 32Z" fill="#a3e635" opacity="0.5"/>
</svg>
